<?xml version="1.0" encoding="UTF-8" standalone="no"?>
<!-- Generator: Adobe Illustrator 16.0.0, SVG Export Plug-In . SVG Version: 6.00 Build 0)  -->

<svg
   xmlns:dc="http://purl.org/dc/elements/1.1/"
   xmlns:cc="http://creativecommons.org/ns#"
   xmlns:rdf="http://www.w3.org/1999/02/22-rdf-syntax-ns#"
   xmlns:svg="http://www.w3.org/2000/svg"
   xmlns="http://www.w3.org/2000/svg"
   xmlns:xlink="http://www.w3.org/1999/xlink"
   xmlns:sodipodi="http://sodipodi.sourceforge.net/DTD/sodipodi-0.dtd"
   xmlns:inkscape="http://www.inkscape.org/namespaces/inkscape"
   version="1.1"
   id="Layer_1"
   x="0px"
   y="0px"
   width="595.28px"
   height="841.89px"
   viewBox="0 0 595.28 841.89"
   enable-background="new 0 0 595.28 841.89"
   xml:space="preserve"
   inkscape:version="0.91 r13725"
   sodipodi:docname="erp-home-icon.svg"
   inkscape:export-filename="/home/alex/bituls/bituls-logo/erp-home-icon.png"
   inkscape:export-xdpi="321.89999"
   inkscape:export-ydpi="321.89999"><metadata
     id="metadata73"><rdf:RDF><cc:Work
         rdf:about=""><dc:format>image/svg+xml</dc:format><dc:type
           rdf:resource="http://purl.org/dc/dcmitype/StillImage" /><dc:title></dc:title></cc:Work></rdf:RDF></metadata><defs
     id="defs71" /><sodipodi:namedview
     pagecolor="#000000"
     bordercolor="#666666"
     borderopacity="1"
     objecttolerance="10"
     gridtolerance="10"
     guidetolerance="10"
     inkscape:pageopacity="0"
     inkscape:pageshadow="2"
     inkscape:window-width="1916"
     inkscape:window-height="1057"
     id="namedview69"
     showgrid="false"
     inkscape:zoom="0.5606433"
     inkscape:cx="351.69686"
     inkscape:cy="408.96654"
     inkscape:window-x="0"
     inkscape:window-y="19"
     inkscape:window-maximized="1"
     inkscape:current-layer="Layer_1"
     showborder="true" /><rect
     style="fill:#3b5998;fill-opacity:1"
     id="rect4281"
     width="602.87891"
     height="847.24103"
     x="-1.7836657"
     y="-4.9003938e-07" /><g
     id="g3"
     style="fill:#ffffff;fill-opacity:1"
     transform="matrix(1.159078,0,0,1.1526817,-45.290962,-47.622424)"><defs
       id="defs5"><rect
         id="SVGID_1_"
         width="595.28003"
         height="841.89001"
         x="0"
         y="0" /></defs><clipPath
       id="SVGID_2_"><use
         xlink:href="#SVGID_1_"
         overflow="visible"
         id="use9"
         style="overflow:visible"
         x="0"
         y="0"
         width="100%"
         height="100%" /></clipPath><path
       clip-path="url(#SVGID_2_)"
       d="m 93.948,320.42 c -0.105,-0.052 -0.209,-0.052 -0.314,-0.052 -0.837,-0.157 -1.726,-0.262 -2.615,-0.262 -0.052,0.053 -0.157,0 -0.209,0 -8.001,0.105 -14.433,6.642 -14.433,14.643 0,7.269 5.229,13.231 12.132,14.434 l 0.157,0 c 0.785,0.156 1.569,0.209 2.353,0.209 l 0.21,0 0.052,0 0.052,0 c 13.231,1.621 23.376,12.917 23.376,26.566 0,14.8 -11.975,26.776 -26.775,26.776 -13.754,0 -25.102,-10.355 -26.619,-23.69 l 0,-6.171 0,-38.385 c 0,-0.579 -0.142,-1.107 -0.209,-1.663 l 0,-51.801 c 0,-6.619 -5.365,-11.985 -11.984,-11.985 l -5.003,0 c -6.619,0 -11.985,5.366 -11.985,11.985 l 0,51.685 c -0.052,0.576 -0.104,1.203 -0.104,1.779 0,0.627 0.052,1.202 0.104,1.83 l 0,30.741 0,5.448 c -0.052,1.15 -0.104,2.301 -0.104,3.451 0,1.151 0.052,2.301 0.104,3.452 1.203,19.767 12.708,36.711 29.181,45.654 7.897,4.341 16.997,6.746 26.619,6.746 30.854,0 55.904,-24.997 55.904,-55.852 0,-28.867 -21.86,-52.557 -49.89,-55.538"
       id="path15"
       inkscape:connector-curvature="0"
       transform="matrix(3.9687256,0,0,3.9687256,-54.063977,-975.28575)"
       style="fill:#ffffff;fill-opacity:1" /><path
       clip-path="url(#SVGID_2_)"
       d="m 324.662,375.958 c 0,1.151 0.052,2.301 0.104,3.451 l 0,-6.902 c -0.052,1.15 -0.104,2.301 -0.104,3.451"
       id="path17"
       style="fill:#ffffff;fill-opacity:1"
       inkscape:connector-curvature="0" /><path
       clip-path="url(#SVGID_2_)"
       d="m 328.688,332.709 c -0.052,0.576 -0.104,1.203 -0.104,1.778 0,0.628 0.053,1.203 0.104,1.83 l 0,-3.608 z"
       id="path19"
       style="fill:#ffffff;fill-opacity:1"
       inkscape:connector-curvature="0" /><path
       clip-path="url(#SVGID_2_)"
       d="m 369.044,349.392 0.052,0 c -0.836,-0.157 -1.726,-0.209 -2.614,-0.209 0.784,0.157 1.568,0.209 2.354,0.209 l 0.208,0 z"
       id="path25"
       style="fill:#ffffff;fill-opacity:1"
       inkscape:connector-curvature="0" /><path
       clip-path="url(#SVGID_2_)"
       d="m 393.542,424.351 c 1.478,-0.851 2.928,-1.745 4.317,-2.722 -1.388,0.977 -2.841,1.869 -4.317,2.722"
       id="path29"
       style="fill:#ffffff;fill-opacity:1"
       inkscape:connector-curvature="0" /></g></svg>